<?xml version="1.0" encoding="utf-8"?>
<!-- Generator: Adobe Illustrator 20.0.0, SVG Export Plug-In . SVG Version: 6.00 Build 0)  -->
<svg version="1.1" id="Layer_1" xmlns="http://www.w3.org/2000/svg" xmlns:xlink="http://www.w3.org/1999/xlink" x="0px" y="0px"
	 viewBox="0 0 345.3 67.1" style="enable-background:new 0 0 345.3 67.1;" xml:space="preserve">
<style type="text/css">
	.st0{fill:#FFFFFF;}
	.st1{fill:#00AEEF;}
</style>
<g>
	<path class="st0" d="M35.1,51.6h-6.8V31.9c0-5.1-0.9-7.3-7.5-7.3c-2.1,0-4.3,0.5-6,1.3v25.8H7.8V7.2h6.8v13.2
		c2.3-0.7,5-1.2,7.9-1.2c11.3,0,12.5,5.3,12.5,11.9V51.6z"/>
	<path class="st0" d="M47,39c0.4,6.2,3.6,7.6,8.6,7.6c4.3,0,8.2-0.4,11.5-0.8l0.6,5.1c-3.5,0.6-7.7,1.2-13.8,1.2
		c-10.7,0-13.6-7-13.6-16.5c0-11.6,3.6-16.5,14.3-16.5c11.5,0,14,6.1,14,15.6c0,0.8,0,1.6-0.1,2.4c-3.7,0.6-11.3,1.4-15.8,1.6L47,39
		z M53.2,34c2.4-0.1,6.1-0.4,8.3-0.7c0.1-0.4,0.1-1.1,0.1-1.5c0-4.9-1.8-7.5-7.1-7.5c-6.8,0-7.7,4.3-7.7,10.1L53.2,34z"/>
	<path class="st0" d="M72.8,42.1c0-5.6,2.4-9.1,8.6-10c3.5-0.5,7.4-0.7,11.4-0.8c0-4.4-1.9-6.7-6.8-6.7c-3.8,0-7.9,0.4-11.1,0.8
		l-0.6-5c3.5-0.6,7.7-1.2,12.4-1.2c7.1,0,12.9,1.9,12.9,10.1v14.1c0,2.1-0.1,3.9-0.3,5.9c-3.6,2-8.4,2.8-14.3,2.8
		C76.2,52.1,72.8,48.7,72.8,42.1z M92.8,35.6c-2.8,0.1-6.1,0.2-8.7,0.8c-3.3,0.8-4.5,1.8-4.5,5.5c0,4,2.2,5,6.3,5
		c2.1,0,4.7-0.2,6.7-1.1c0.1-1.3,0.2-2.9,0.2-4.3V35.6z"/>
	<path class="st0" d="M105.9,7.2h6.9V43c0,3,0.7,5,2.3,7.2l-6,2.8c-2.1-2.4-3.2-5.3-3.2-9.7V7.2z"/>
	<path class="st0" d="M136.8,51.6c-1.5,0.3-3.4,0.5-4.8,0.5c-6.5,0-9.3-2.8-9.3-8.8V24.6h-5.4v-5.1h5.4v-7.9l6.9-1.1v9.1h6.7v5.1
		h-6.7v18.1c0,3.1,1.3,4.1,4.3,4.1c0.8,0,1.6,0,2.4-0.1L136.8,51.6z"/>
	<path class="st0" d="M168.8,51.6h-6.8V31.9c0-5.1-0.9-7.3-7.5-7.3c-2.1,0-4.3,0.5-6,1.3v25.8h-6.8V7.2h6.8v13.2
		c2.3-0.7,5-1.2,7.9-1.2c11.3,0,12.5,5.3,12.5,11.9V51.6z"/>
	<path class="st0" d="M195.8,25.3c-1.8-0.3-3.7-0.7-5.6-0.7c-8.4,0-9.3,2.3-9.3,10.6c0,7.9,0.3,11.2,9.3,11.2c1.9,0,3.7-0.3,5.5-0.7
		l0.6,5.2c-2.7,0.6-5.9,1.1-10,1.1c-10.7,0-12.4-8.1-12.4-16.8c0-10.5,2.4-16.2,14.2-16.2c3.4,0,6,0.5,8.1,1.1L195.8,25.3z"/>
	<path class="st0" d="M200.4,42.1c0-5.6,2.4-9.1,8.6-10c3.5-0.5,7.4-0.7,11.4-0.8c0-4.4-1.9-6.7-6.8-6.7c-3.8,0-7.9,0.4-11.1,0.8
		l-0.6-5c3.5-0.6,7.7-1.2,12.4-1.2c7.1,0,12.9,1.9,12.9,10.1v14.1c0,2.1-0.1,3.9-0.3,5.9c-3.6,2-8.4,2.8-14.3,2.8
		C203.8,52.1,200.4,48.7,200.4,42.1z M220.4,35.6c-2.8,0.1-6.1,0.2-8.7,0.8c-3.3,0.8-4.5,1.8-4.5,5.5c0,4,2.2,5,6.3,5
		c2.1,0,4.7-0.2,6.7-1.1c0.1-1.3,0.2-2.9,0.2-4.3V35.6z"/>
	<path class="st0" d="M240.8,51.6H234V27.8c0-2.1,0.1-3.9,0.3-5.9c3.6-2,8.4-2.8,12.6-2.8c1.1,0,2.1,0,3,0.1l-0.5,5.4
		c-0.7-0.1-1.5-0.1-2.4-0.1c-2.1,0-4.5,0.4-5.9,1.1c-0.1,1.3-0.2,2.9-0.2,4.3V51.6z"/>
	<path class="st0" d="M259.4,39c0.4,6.2,3.6,7.6,8.6,7.6c4.3,0,8.2-0.4,11.5-0.8l0.6,5.1c-3.5,0.6-7.7,1.2-13.8,1.2
		c-10.7,0-13.6-7-13.6-16.5c0-11.6,3.6-16.5,14.3-16.5c11.5,0,14,6.1,14,15.6c0,0.8,0,1.6-0.1,2.4c-3.7,0.6-11.3,1.4-15.8,1.6
		L259.4,39z M265.7,34c2.4-0.1,6.1-0.4,8.3-0.7c0.1-0.4,0.1-1.1,0.1-1.5c0-4.9-1.8-7.5-7.1-7.5c-6.8,0-7.7,4.3-7.7,10.1L265.7,34z"
		/>
	<path class="st0" d="M289.7,43.7c3.2,0,4.2,1,4.2,4.2s-0.9,4.2-4.2,4.2c-3.2,0-4.1-1-4.1-4.2S286.5,43.7,289.7,43.7z"/>
	<path class="st1" d="M298.7,42.1c0-5.6,2.4-9.1,8.6-10c3.5-0.5,7.4-0.7,11.4-0.8c0-4.4-1.9-6.7-6.8-6.7c-3.8,0-7.9,0.4-11.1,0.8
		l-0.6-5c3.5-0.6,7.7-1.2,12.4-1.2c7.1,0,12.9,1.9,12.9,10.1v14.1c0,2.1-0.1,3.9-0.3,5.9c-3.6,2-8.4,2.8-14.3,2.8
		C302.1,52.1,298.7,48.7,298.7,42.1z M318.7,35.6c-2.8,0.1-6.1,0.2-8.7,0.8c-3.3,0.8-4.5,1.8-4.5,5.5c0,4,2.2,5,6.3,5
		c2.1,0,4.7-0.2,6.7-1.1c0.1-1.3,0.2-2.9,0.2-4.3V35.6z"/>
	<path class="st1" d="M335.6,15.1c-3.2,0-4.1-1-4.1-4.2s1-4.2,4.1-4.2c3.2,0,4.2,1,4.2,4.2S338.8,15.1,335.6,15.1z M332.2,51.6V19.6
		h6.9v32.1H332.2z"/>
</g>
</svg>
